<?xml version="1.0" encoding="UTF-8"?>
<svg width="490px" height="62px" viewBox="0 0 490 62" version="1.1" xmlns="http://www.w3.org/2000/svg" xmlns:xlink="http://www.w3.org/1999/xlink">
    <!-- Generator: Sketch 41 (35326) - http://www.bohemiancoding.com/sketch -->
    <title>Group 151</title>
    <desc>Created with Sketch.</desc>
    <defs></defs>
    <g id="Page-1" stroke="none" stroke-width="1" fill="none" fill-rule="evenodd">
        <g id="Textbook-(dragged)" transform="translate(-11.000000, -148.000000)">
            <g id="Group-179" transform="translate(-64.000000, -62.440000)">
                <g id="Group-151" transform="translate(75.000000, 211.000000)">
                    <text id="A¡™" font-family="LucidaGrande, Lucida Grande" font-size="9" font-weight="normal" letter-spacing="0.0001" fill="#1A1918">
                        <tspan x="453.9138" y="30.1788906">A¡™</tspan>
                    </text>
                    <path d="M429.373,30.202 C429.373,13.633 442.805,0.202 459.373,0.202 C475.941,0.202 489.373,13.633 489.373,30.202 C489.373,46.771 475.941,60.202 459.373,60.202 C442.805,60.202 429.373,46.771 429.373,30.202 Z" id="Stroke-121" stroke="#00A3DB" stroke-width="0.6" stroke-linejoin="round"></path>
                    <polygon id="Stroke-123" stroke="#D8117D" stroke-width="0.5" stroke-linejoin="round" points="474.32 55.966 459.373 59.971 444.426 55.966 433.484 45.024 429.479 30.077 433.484 15.13 444.426 4.187 459.373 0.182 474.32 4.187 485.262 15.13 489.268 30.077 485.262 45.024"></polygon>
                    <text id="A¶" font-family="LucidaGrande, Lucida Grande" font-size="9" font-weight="normal" fill="#1A1918">
                        <tspan x="372.2199" y="30.1788906">A¶</tspan>
                    </text>
                    <path d="M346.422,30.229 C346.422,13.66 359.854,0.229 376.422,0.229 C392.992,0.229 406.422,13.66 406.422,30.229 C406.422,46.798 392.992,60.229 376.422,60.229 C359.854,60.229 346.422,46.798 346.422,30.229 Z" id="Stroke-126" stroke="#00A3DB" stroke-width="0.6" stroke-linejoin="round"></path>
                    <polygon id="Stroke-128" stroke="#D8117D" stroke-width="0.5" stroke-linejoin="round" points="399.689 48.69 376.496 59.929 353.248 48.805 347.451 23.692 363.471 3.502 389.242 3.438 405.361 23.548"></polygon>
                    <text id="Aß" font-family="LucidaGrande, Lucida Grande" font-size="9" font-weight="normal" fill="#1A1918">
                        <tspan x="296.9682" y="30.1788906">Aß</tspan>
                    </text>
                    <path d="M271.223,30.229 C271.223,13.66 284.654,0.229 301.223,0.229 C317.791,0.229 331.223,13.66 331.223,30.229 C331.223,46.798 317.791,60.229 301.223,60.229 C284.654,60.229 271.223,46.798 271.223,30.229 Z" id="Stroke-131" stroke="#00A3DB" stroke-width="0.6" stroke-linejoin="round"></path>
                    <polygon id="Stroke-133" stroke="#D8117D" stroke-width="0.5" stroke-linejoin="round" points="316.027 55.871 286.418 55.871 271.613 30.229 286.418 4.587 316.027 4.587 330.83 30.229"></polygon>
                    <text id="A∞" font-family="LucidaGrande, Lucida Grande" font-size="9" font-weight="normal" fill="#1A1918">
                        <tspan x="221.5527" y="30.1788906">A∞</tspan>
                    </text>
                    <path d="M195.772,30.229 C195.772,13.66 209.203,0.229 225.772,0.229 C242.341,0.229 255.772,13.66 255.772,30.229 C255.772,46.798 242.341,60.229 225.772,60.229 C209.203,60.229 195.772,46.798 195.772,30.229 Z" id="Stroke-136" stroke="#00A3DB" stroke-width="0.6" stroke-linejoin="round"></path>
                    <polygon id="Stroke-138" stroke="#D8117D" stroke-width="0.5" stroke-linejoin="round" points="254.033 39.411 225.772 59.944 197.511 39.411 208.306 6.189 243.237 6.189"></polygon>
                    <text id="A¢" font-family="LucidaGrande, Lucida Grande" font-size="9" font-weight="normal" fill="#1A1918">
                        <tspan x="146.5251" y="30.1788906">A¢</tspan>
                    </text>
                    <path d="M120.822,30.229 C120.822,13.66 134.253,0.229 150.822,0.229 C167.391,0.229 180.822,13.66 180.822,30.229 C180.822,46.798 167.391,60.229 150.822,60.229 C134.253,60.229 120.822,46.798 120.822,30.229 Z" id="Stroke-141" stroke="#00A3DB" stroke-width="0.6" stroke-linejoin="round"></path>
                    <polygon id="Stroke-143" stroke="#D8117D" stroke-width="0.5" stroke-linejoin="round" points="129.632 51.418 172.01 51.418 172.01 9.04 129.632 9.04"></polygon>
                    <path d="M45.871,30.229 C45.871,13.66 59.302,0.229 75.871,0.229 C92.439,0.229 105.872,13.66 105.872,30.229 C105.872,46.798 92.439,60.229 75.871,60.229 C59.302,60.229 45.871,46.798 45.871,30.229 Z" id="Stroke-145" stroke="#00A3DB" stroke-width="0.6" stroke-linejoin="round"></path>
                    <polygon id="Stroke-147" stroke="#D8117D" stroke-width="0.5" stroke-linejoin="round" points="49.995 45.137 75.871 0.32 101.747 45.137"></polygon>
                    <text id="A£" font-family="LucidaGrande, Lucida Grande" font-size="9" font-weight="normal" fill="#1A1918">
                        <tspan x="71.5938" y="30.1788906">A£</tspan>
                    </text>
                    <text id="FIGURE-2-" font-family="LucidaGrande, Lucida Grande" font-size="8.5" font-weight="normal" letter-spacing="0.0599" fill="#1A1918">
                        <tspan x="1e-05" y="54.7454578">FIGURE 2 </tspan>
                    </text>
                </g>
            </g>
        </g>
    </g>
</svg>